<svg xmlns="http://www.w3.org/2000/svg" width="1024" height="1024" viewBox="0 0 1024 1024">
  <defs>
    <radialGradient id="bg" cx="35%" cy="30%" r="80%">
      <stop offset="0%" stop-color="#1a1a1a"/>
      <stop offset="60%" stop-color="#0b0b0b"/>
      <stop offset="100%" stop-color="#000000"/>
    </radialGradient>
    <linearGradient id="gold" x1="0" y1="0" x2="1" y2="1">
      <stop offset="0%" stop-color="#fff2b0"/>
      <stop offset="25%" stop-color="#f5c84b"/>
      <stop offset="55%" stop-color="#c58a1a"/>
      <stop offset="75%" stop-color="#f7d66a"/>
      <stop offset="100%" stop-color="#8a5a10"/>
    </linearGradient>
    <filter id="soft" x="-20%" y="-20%" width="140%" height="140%">
      <feGaussianBlur stdDeviation="6"/>
    </filter>
  </defs>
  <rect width="1024" height="1024" fill="url(#bg)"/>
  <rect x="160" y="180" width="704" height="664" rx="56" fill="#0f0f0f" stroke="#2a1f0a" stroke-width="6"/>
  <rect x="210" y="230" width="604" height="564" rx="44" fill="#050505" stroke="#1e1e1e" stroke-width="2"/>
  <g transform="translate(0,10)">
    <ellipse cx="512" cy="520" rx="250" ry="280" fill="url(#gold)" opacity="0.22" filter="url(#soft)"/>
    <path d="M512 340c-90 0-160 72-160 160 0 104 72 190 160 190s160-86 160-190c0-88-70-160-160-160z"
          fill="url(#gold)" opacity="0.85"/>
    <path d="M370 520c20 120 88 200 142 200s122-80 142-200" fill="none" stroke="#7a4f0f" stroke-width="10" opacity="0.55"/>
    <circle cx="452" cy="510" r="12" fill="#6b440c" opacity="0.55"/>
    <circle cx="572" cy="510" r="12" fill="#6b440c" opacity="0.55"/>
    <path d="M480 600c20 18 44 18 64 0" fill="none" stroke="#6b440c" stroke-width="10" opacity="0.6" stroke-linecap="round"/>
  </g>
  <text x="512" y="888" text-anchor="middle" fill="#d7b35a" font-family="system-ui,Segoe UI,Arial" font-size="28" opacity="0.65">Gold Art Object</text>
</svg>
